<svg xmlns="http://www.w3.org/2000/svg" viewBox="0 0 24 24" fill="none">
  <path fill="#E44332" d="M21 4.5v15a1.5 1.5 0 0 1-1.5 1.5h-15A1.5 1.5 0 0 1 3 19.5v-15A1.5 1.5 0 0 1 4.5 3h15A1.5 1.5 0 0 1 21 4.5Z"/>
  <path fill="#fff" d="m6.963 10.387 4.87-2.793a.66.66 0 0 1 .673.012l4.51 2.79c.31.193.31.647-.001.84l-4.865 2.847a.66.66 0 0 1-.678-.005l-4.515-2.856a.485.485 0 0 1 .006-.835Z"/>
  <path fill="#fff" d="m6.963 13.907 4.87-2.793a.66.66 0 0 1 .673.012l4.51 2.79c.31.193.31.647-.001.84l-4.865 2.847a.66.66 0 0 1-.678-.005l-4.515-2.856a.485.485 0 0 1 .006-.835Z"/>
</svg>
