<svg xmlns="http://www.w3.org/2000/svg" viewBox="0 0 48 48" width="48" height="48">
  <defs>
    <linearGradient id="zaloGradient" x1="0%" y1="0%" x2="100%" y2="100%">
      <stop offset="0%" style="stop-color:#0068FF"/>
      <stop offset="100%" style="stop-color:#0056D2"/>
    </linearGradient>
  </defs>
  <circle cx="24" cy="24" r="22" fill="url(#zaloGradient)"/>
  <path fill="#FFFFFF" d="M33.5 14H14.5C13.1 14 12 15.1 12 16.5v11c0 1.4 1.1 2.5 2.5 2.5h4l-1 5 6-5h10c1.4 0 2.5-1.1 2.5-2.5v-11c0-1.4-1.1-2.5-2.5-2.5zM19 24.5h-2v-7h2v7zm4.5 0h-2v-4.5l-1 4.5h-1l-1-4.5v4.5h-1v-7h2l.5 3 .5-3h2v7zm5 0h-4v-7h2v5h2v2zm4 0h-2l-1.5-4v4h-1v-7h2l1.5 4v-4h1v7z"/>
</svg>


